<svg width="36" height="36" viewBox="0 0 36 36" fill="none" xmlns="http://www.w3.org/2000/svg">
    <rect width="36" height="36" rx="18" fill="#D7EFF5"/>
    <path fill-rule="evenodd" clip-rule="evenodd" d="M18 8.25C18.4142 8.25 18.75 8.58579 18.75 9V27C18.75 27.4142 18.4142 27.75 18 27.75C17.5858 27.75 17.25 27.4142 17.25 27V9C17.25 8.58579 17.5858 8.25 18 8.25Z" fill="#287A91"/>
    <path fill-rule="evenodd" clip-rule="evenodd" d="M27.75 18C27.75 18.4142 27.4142 18.75 27 18.75H9C8.58579 18.75 8.25 18.4142 8.25 18C8.25 17.5858 8.58579 17.25 9 17.25H27C27.4142 17.25 27.75 17.5858 27.75 18Z" fill="#287A91"/>
</svg>

