<svg xmlns="http://www.w3.org/2000/svg" width="30" height="30" viewBox="0 0 29 29" fill="none">
    <path d="M2.41667 10.0417C2.41667 8.15605 2.41667 7.21324 3.00245 6.62745C3.58824 6.04167 4.53105 6.04167 6.41667 6.04167H22.5833C24.469 6.04167 25.4118 6.04167 25.9975 6.62745C26.5833 7.21324 26.5833 8.15605 26.5833 10.0417V10.6417C26.5833 11.1131 26.5833 11.3488 26.4369 11.4952C26.2904 11.6417 26.0547 11.6417 25.5833 11.6417H3.41667C2.94526 11.6417 2.70956 11.6417 2.56311 11.4952C2.41667 11.3488 2.41667 11.1131 2.41667 10.6417V10.0417Z" fill="#057D9F"/>
    <path fill-rule="evenodd" clip-rule="evenodd" d="M2.41667 22.5833C2.41667 24.469 2.41667 25.4118 3.00245 25.9975C3.58824 26.5833 4.53105 26.5833 6.41667 26.5833H22.5833C24.469 26.5833 25.4118 26.5833 25.9975 25.9975C26.5833 25.4118 26.5833 24.469 26.5833 22.5833V22.5833V15.5V15.5C26.5833 15.0286 26.5833 14.7929 26.4369 14.6464C26.2904 14.5 26.0547 14.5 25.5833 14.5H3.41667C2.94526 14.5 2.70956 14.5 2.56311 14.6464C2.41667 14.7929 2.41667 15.0286 2.41667 15.5V22.5833ZM8.45833 17.9167C8.45833 17.4453 8.45833 17.2096 8.60478 17.0631C8.75123 16.9167 8.98693 16.9167 9.45833 16.9167H12.2917C12.7631 16.9167 12.9988 16.9167 13.1452 17.0631C13.2917 17.2096 13.2917 17.4453 13.2917 17.9167V18.3333C13.2917 18.8047 13.2917 19.0404 13.1452 19.1869C12.9988 19.3333 12.7631 19.3333 12.2917 19.3333H9.45834C8.98693 19.3333 8.75123 19.3333 8.60478 19.1869C8.45833 19.0404 8.45833 18.8047 8.45833 18.3333V17.9167ZM8.60478 21.8964C8.45833 22.0429 8.45833 22.2786 8.45833 22.75V23.1667C8.45833 23.6381 8.45833 23.8738 8.60478 24.0202C8.75123 24.1667 8.98693 24.1667 9.45834 24.1667H12.2917C12.7631 24.1667 12.9988 24.1667 13.1452 24.0202C13.2917 23.8738 13.2917 23.6381 13.2917 23.1667V22.75C13.2917 22.2786 13.2917 22.0429 13.1452 21.8964C12.9988 21.75 12.7631 21.75 12.2917 21.75H9.45833C8.98693 21.75 8.75123 21.75 8.60478 21.8964ZM15.7083 17.9167C15.7083 17.4453 15.7083 17.2096 15.8548 17.0631C16.0012 16.9167 16.2369 16.9167 16.7083 16.9167H19.5417C20.0131 16.9167 20.2488 16.9167 20.3952 17.0631C20.5417 17.2096 20.5417 17.4453 20.5417 17.9167V18.3333C20.5417 18.8047 20.5417 19.0404 20.3952 19.1869C20.2488 19.3333 20.0131 19.3333 19.5417 19.3333H16.7083C16.2369 19.3333 16.0012 19.3333 15.8548 19.1869C15.7083 19.0404 15.7083 18.8047 15.7083 18.3333V17.9167ZM15.8548 21.8964C15.7083 22.0429 15.7083 22.2786 15.7083 22.75V23.1667C15.7083 23.6381 15.7083 23.8738 15.8548 24.0202C16.0012 24.1667 16.2369 24.1667 16.7083 24.1667H19.5417C20.0131 24.1667 20.2488 24.1667 20.3952 24.0202C20.5417 23.8738 20.5417 23.6381 20.5417 23.1667V22.75C20.5417 22.2786 20.5417 22.0429 20.3952 21.8964C20.2488 21.75 20.0131 21.75 19.5417 21.75H16.7083C16.2369 21.75 16.0012 21.75 15.8548 21.8964Z" fill="#057D9F"/>
    <path d="M8.45833 3.625L8.45833 7.25" stroke="#057D9F" stroke-width="3" stroke-linecap="round"/>
    <path d="M20.5417 3.625L20.5417 7.25" stroke="#057D9F" stroke-width="3" stroke-linecap="round"/>
</svg>