<svg xmlns="http://www.w3.org/2000/svg" width="30" height="30" viewBox="0 0 29 29" fill="none">
    <path d="M2.41667 10.0417C2.41667 8.15605 2.41667 7.21324 3.00245 6.62745C3.58824 6.04167 4.53105 6.04167 6.41667 6.04167H22.5833C24.469 6.04167 25.4118 6.04167 25.9975 6.62745C26.5833 7.21324 26.5833 8.15605 26.5833 10.0417V10.6417C26.5833 11.1131 26.5833 11.3488 26.4369 11.4952C26.2904 11.6417 26.0547 11.6417 25.5833 11.6417H3.41667C2.94526 11.6417 2.70956 11.6417 2.56311 11.4952C2.41667 11.3488 2.41667 11.1131 2.41667 10.6417V10.0417Z" stroke="#057D9F"/>
    <path d="M8.45833 3.625L8.45833 7.25" stroke="#057D9F" stroke-width="2" stroke-linecap="round"/>
    <path d="M20.5417 3.625L20.5417 7.25" stroke="#057D9F" stroke-width="2" stroke-linecap="round"/>
    <path d="M2.41667 22.5833C2.41667 24.469 2.41667 25.4118 3.00245 25.9975C3.58824 26.5833 4.53105 26.5833 6.41667 26.5833H22.5833C24.469 26.5833 25.4118 26.5833 25.9975 25.9975C26.5833 25.4118 26.5833 24.469 26.5833 22.5833V15.5C26.5833 15.0286 26.5833 14.7929 26.4369 14.6464C26.2904 14.5 26.0547 14.5 25.5833 14.5H3.41667C2.94526 14.5 2.70956 14.5 2.56311 14.6464C2.41667 14.7929 2.41667 15.0286 2.41667 15.5V22.5833Z" stroke="#057D9F"/>
    <rect x="8.45834" y="16.9167" width="4.83333" height="2.41667" rx="0.5" fill="#057D9F"/>
    <rect x="8.45834" y="21.75" width="4.83333" height="2.41667" rx="0.5" fill="#057D9F"/>
    <rect x="15.7083" y="16.9167" width="4.83333" height="2.41667" rx="0.5" fill="#057D9F"/>
    <rect x="15.7083" y="21.75" width="4.83333" height="2.41667" rx="0.5" fill="#057D9F"/>
</svg>