<svg xmlns="http://www.w3.org/2000/svg" width="30" height="30" viewBox="0 0 30 30" fill="none">
    <path d="M6.25 15.9494C6.25 14.2522 6.25 13.4036 6.59308 12.6577C6.93615 11.9118 7.58046 11.3595 8.86906 10.255L10.1191 9.18358C12.4482 7.18717 13.6128 6.18896 15 6.18896C16.3872 6.18896 17.5518 7.18717 19.8809 9.18358L21.1309 10.255C22.4195 11.3595 23.0638 11.9118 23.4069 12.6577C23.75 13.4036 23.75 14.2522 23.75 15.9494V21.2499C23.75 23.6069 23.75 24.7855 23.0178 25.5177C22.2855 26.2499 21.107 26.2499 18.75 26.2499H11.25C8.89298 26.2499 7.71447 26.2499 6.98223 25.5177C6.25 24.7855 6.25 23.6069 6.25 21.2499V15.9494Z" fill="#057D9F" stroke="#057D9F" stroke-width="2"/>
    <path d="M18.14 26.25L18.14 20.0655V20.0655C18.14 19.339 17.551 18.75 16.8244 18.75H13.1755C12.449 18.75 11.86 19.339 11.86 20.0655V20.0655L11.86 26.25" stroke="white" stroke-width="1.5"/>
</svg>