<svg xmlns="http://www.w3.org/2000/svg" width="30" height="30" viewBox="0 0 27 27" fill="none">
    <path d="M3.37 8.4845C3.37 8.2465 3.37 8.12751 3.42003 8.02424C3.47006 7.92098 3.56345 7.84722 3.75023 7.69972L6.07867 5.86087C6.61854 5.43452 6.88847 5.22134 7.20718 5.11067C7.52588 5 7.86984 5 8.55775 5H18.4422C19.1302 5 19.4741 5 19.7928 5.11067C20.1115 5.22134 20.3815 5.43452 20.9213 5.86087L23.2498 7.69972C23.4365 7.84722 23.5299 7.92098 23.58 8.02424C23.63 8.12751 23.63 8.2465 23.63 8.4845V9H3.37V8.4845Z" stroke="#057D9F"/>
    <path d="M3.375 9V8.5H2.875V9H3.375ZM23.625 9H24.125V8.5H23.625V9ZM3.96079 23.0392L3.60723 23.3928L3.60723 23.3928L3.96079 23.0392ZM23.0392 23.0392L23.3928 23.3928L23.0392 23.0392ZM10.8483 15.1517L10.4948 15.5052L10.8483 15.1517ZM16.1516 15.1517L15.7981 14.7981H15.7981L16.1516 15.1517ZM15.9749 14.9749L15.6213 14.6213L15.6213 14.6213L15.9749 14.9749ZM3.375 9.5H23.625V8.5H3.375V9.5ZM3.875 19.625V9H2.875V19.625H3.875ZM4.31434 22.6857C4.12983 22.5012 4.00953 22.2421 3.94376 21.7529C3.87606 21.2494 3.875 20.5819 3.875 19.625H2.875C2.875 20.5537 2.87394 21.3005 2.95268 21.8862C3.03336 22.4862 3.20596 22.9915 3.60723 23.3928L4.31434 22.6857ZM7.375 23.125C6.41806 23.125 5.75065 23.1239 5.24708 23.0562C4.7579 22.9905 4.49885 22.8702 4.31434 22.6857L3.60723 23.3928C4.00851 23.794 4.51376 23.9666 5.11383 24.0473C5.69952 24.1261 6.44633 24.125 7.375 24.125V23.125ZM19.625 23.125H7.375V24.125H19.625V23.125ZM22.6857 22.6857C22.5012 22.8702 22.2421 22.9905 21.7529 23.0562C21.2494 23.1239 20.5819 23.125 19.625 23.125V24.125C20.5537 24.125 21.3005 24.1261 21.8862 24.0473C22.4862 23.9666 22.9915 23.794 23.3928 23.3928L22.6857 22.6857ZM23.125 19.625C23.125 20.5819 23.1239 21.2494 23.0562 21.7529C22.9905 22.2421 22.8702 22.5012 22.6857 22.6857L23.3928 23.3928C23.794 22.9915 23.9666 22.4862 24.0473 21.8862C24.1261 21.3005 24.125 20.5537 24.125 19.625H23.125ZM23.125 9V19.625H24.125V9H23.125ZM9.875 12.875C9.66789 12.875 9.5 12.7071 9.5 12.5H10.5C10.5 12.1548 10.2202 11.875 9.875 11.875V12.875ZM10.25 12.5C10.25 12.7071 10.0821 12.875 9.875 12.875V11.875C9.52982 11.875 9.25 12.1548 9.25 12.5H10.25ZM11.2019 14.7981C10.5924 14.1886 10.25 13.362 10.25 12.5H9.25C9.25 13.6272 9.69777 14.7082 10.4948 15.5052L11.2019 14.7981ZM13.5 15.75C12.638 15.75 11.8114 15.4076 11.2019 14.7981L10.4948 15.5052C11.2918 16.3022 12.3728 16.75 13.5 16.75V15.75ZM15.7981 14.7981C15.1886 15.4076 14.362 15.75 13.5 15.75V16.75C14.6272 16.75 15.7082 16.3022 16.5052 15.5052L15.7981 14.7981ZM16.625 12.5C16.625 13.3985 16.3854 14.2108 15.7981 14.7981L16.5052 15.5052C17.3392 14.6712 17.625 13.5663 17.625 12.5H16.625ZM17 12.875C16.7929 12.875 16.625 12.7071 16.625 12.5H17.625C17.625 12.1548 17.3452 11.875 17 11.875V12.875ZM17.375 12.5C17.375 12.7071 17.2071 12.875 17 12.875V11.875C16.6548 11.875 16.375 12.1548 16.375 12.5H17.375ZM16.3284 15.3284C17.1007 14.5562 17.375 13.5245 17.375 12.5H16.375C16.375 13.3564 16.147 14.0956 15.6213 14.6213L16.3284 15.3284ZM13.5 16.5C14.5609 16.5 15.5783 16.0786 16.3284 15.3284L15.6213 14.6213C15.0587 15.1839 14.2956 15.5 13.5 15.5V16.5ZM10.6716 15.3284C11.4217 16.0786 12.4391 16.5 13.5 16.5V15.5C12.7044 15.5 11.9413 15.1839 11.3787 14.6213L10.6716 15.3284ZM9.5 12.5C9.5 13.5609 9.92143 14.5783 10.6716 15.3284L11.3787 14.6213C10.8161 14.0587 10.5 13.2956 10.5 12.5H9.5Z" fill="#057D9F"/>
</svg>