<svg xmlns="http://www.w3.org/2000/svg" width="30" height="30" viewBox="0 0 27 27" fill="none">
    <path d="M3.37 8.4845C3.37 8.2465 3.37 8.12751 3.42003 8.02424C3.47006 7.92098 3.56345 7.84722 3.75023 7.69972L6.07867 5.86087C6.61854 5.43452 6.88847 5.22134 7.20718 5.11067C7.52588 5 7.86984 5 8.55775 5H18.4422C19.1302 5 19.4741 5 19.7928 5.11067C20.1115 5.22134 20.3815 5.43452 20.9213 5.86087L23.2498 7.69972C23.4365 7.84722 23.5299 7.92098 23.58 8.02424C23.63 8.12751 23.63 8.2465 23.63 8.4845V9H3.37V8.4845Z" fill="#057D9F"/>
    <path fill-rule="evenodd" clip-rule="evenodd" d="M23.625 9H3.375V19.625C3.375 21.5106 3.375 22.4534 3.96079 23.0392C4.54657 23.625 5.48938 23.625 7.375 23.625H19.625C21.5106 23.625 22.4534 23.625 23.0392 23.0392C23.625 22.4534 23.625 21.5106 23.625 19.625V9ZM10.625 12.5C10.625 12.0858 10.2892 11.75 9.875 11.75C9.46079 11.75 9.125 12.0858 9.125 12.5C9.125 13.6603 9.58594 14.7731 10.4064 15.5936C11.2269 16.4141 12.3397 16.875 13.5 16.875C14.6603 16.875 15.7731 16.4141 16.5936 15.5936C17.4584 14.7288 17.75 13.5873 17.75 12.5C17.75 12.0858 17.4142 11.75 17 11.75C16.5858 11.75 16.25 12.0858 16.25 12.5C16.25 13.3355 16.0277 14.0381 15.5329 14.5329C14.9938 15.0721 14.2625 15.375 13.5 15.375C12.7375 15.375 12.0062 15.0721 11.4671 14.5329C10.9279 13.9938 10.625 13.2625 10.625 12.5Z" fill="#057D9F"/>
</svg>