<svg width="12" height="12" viewBox="0 0 12 12" fill="none" xmlns="http://www.w3.org/2000/svg">
    <path d="M9.5 6.5L9.85355 6.14645L10.2071 6.5L9.85355 6.85355L9.5 6.5ZM2 7C1.72386 7 1.5 6.77614 1.5 6.5C1.5 6.22386 1.72386 6 2 6V7ZM6.85355 3.14645L9.85355 6.14645L9.14645 6.85355L6.14645 3.85355L6.85355 3.14645ZM9.85355 6.85355L6.85355 9.85355L6.14645 9.14645L9.14645 6.14645L9.85355 6.85355ZM9.5 7H2V6H9.5V7Z"
          fill="black"/>
    <path d="M9.5 6.5L9.85355 6.14645L10.2071 6.5L9.85355 6.85355L9.5 6.5ZM2 7C1.72386 7 1.5 6.77614 1.5 6.5C1.5 6.22386 1.72386 6 2 6V7ZM6.85355 3.14645L9.85355 6.14645L9.14645 6.85355L6.14645 3.85355L6.85355 3.14645ZM9.85355 6.85355L6.85355 9.85355L6.14645 9.14645L9.14645 6.14645L9.85355 6.85355ZM9.5 7H2V6H9.5V7Z"
          fill="black" fill-opacity="0.2"/>
    <path d="M9.5 6.5L9.85355 6.14645L10.2071 6.5L9.85355 6.85355L9.5 6.5ZM2 7C1.72386 7 1.5 6.77614 1.5 6.5C1.5 6.22386 1.72386 6 2 6V7ZM6.85355 3.14645L9.85355 6.14645L9.14645 6.85355L6.14645 3.85355L6.85355 3.14645ZM9.85355 6.85355L6.85355 9.85355L6.14645 9.14645L9.14645 6.14645L9.85355 6.85355ZM9.5 7H2V6H9.5V7Z"
          fill="black" fill-opacity="0.2"/>
    <path d="M9.5 6.5L9.85355 6.14645L10.2071 6.5L9.85355 6.85355L9.5 6.5ZM2 7C1.72386 7 1.5 6.77614 1.5 6.5C1.5 6.22386 1.72386 6 2 6V7ZM6.85355 3.14645L9.85355 6.14645L9.14645 6.85355L6.14645 3.85355L6.85355 3.14645ZM9.85355 6.85355L6.85355 9.85355L6.14645 9.14645L9.14645 6.14645L9.85355 6.85355ZM9.5 7H2V6H9.5V7Z"
          fill="black" fill-opacity="0.2"/>
</svg>
